<mxfile host="app.diagrams.net" modified="2024-06-30T18:55:48.263Z" agent="Mozilla/5.0 (Windows NT 10.0; Win64; x64) AppleWebKit/537.36 (KHTML, like Gecko) Chrome/126.0.0.0 Safari/537.36" etag="6vhSDS1Bt42uxp_nQfJv" version="24.6.4" type="device">
  <diagram name="Page-1" id="Iyg1wHS7LBIvuedggRz-">
    <mxGraphModel dx="1753" dy="484" grid="1" gridSize="10" guides="1" tooltips="1" connect="1" arrows="1" fold="1" page="1" pageScale="1" pageWidth="827" pageHeight="1169" math="0" shadow="0">
      <root>
        <mxCell id="0" />
        <mxCell id="1" parent="0" />
        <mxCell id="aJTX1MmzwS1lVA-8TjY2-1" value="&lt;font style=&quot;font-size: 23px;&quot;&gt;user&lt;/font&gt;" style="rounded=0;whiteSpace=wrap;html=1;" vertex="1" parent="1">
          <mxGeometry x="110" y="220" width="120" height="60" as="geometry" />
        </mxCell>
        <mxCell id="aJTX1MmzwS1lVA-8TjY2-2" value="&lt;font style=&quot;font-size: 21px;&quot;&gt;Contact&lt;/font&gt;" style="rounded=0;whiteSpace=wrap;html=1;" vertex="1" parent="1">
          <mxGeometry x="520" y="220" width="120" height="60" as="geometry" />
        </mxCell>
        <mxCell id="aJTX1MmzwS1lVA-8TjY2-3" value="&lt;u&gt;id&lt;/u&gt;" style="ellipse;whiteSpace=wrap;html=1;" vertex="1" parent="1">
          <mxGeometry x="-10" y="235" width="60" height="30" as="geometry" />
        </mxCell>
        <mxCell id="aJTX1MmzwS1lVA-8TjY2-4" value="name" style="ellipse;whiteSpace=wrap;html=1;" vertex="1" parent="1">
          <mxGeometry y="190" width="60" height="30" as="geometry" />
        </mxCell>
        <mxCell id="aJTX1MmzwS1lVA-8TjY2-5" value="email&lt;span style=&quot;color: rgba(0, 0, 0, 0); font-family: monospace; font-size: 0px; text-align: start; text-wrap: nowrap;&quot;&gt;%3CmxGraphModel%3E%3Croot%3E%3CmxCell%20id%3D%220%22%2F%3E%3CmxCell%20id%3D%221%22%20parent%3D%220%22%2F%3E%3CmxCell%20id%3D%222%22%20value%3D%22name%22%20style%3D%22ellipse%3BwhiteSpace%3Dwrap%3Bhtml%3D1%3B%22%20vertex%3D%221%22%20parent%3D%221%22%3E%3CmxGeometry%20y%3D%22190%22%20width%3D%2260%22%20height%3D%2230%22%20as%3D%22geometry%22%2F%3E%3C%2FmxCell%3E%3C%2Froot%3E%3C%2FmxGraphModel%3E&lt;/span&gt;" style="ellipse;whiteSpace=wrap;html=1;" vertex="1" parent="1">
          <mxGeometry x="30" y="150" width="60" height="30" as="geometry" />
        </mxCell>
        <mxCell id="aJTX1MmzwS1lVA-8TjY2-6" value="password&lt;span style=&quot;color: rgba(0, 0, 0, 0); font-family: monospace; font-size: 0px; text-align: start; text-wrap: nowrap;&quot;&gt;%3CmxGraphModel%3E%3Croot%3E%3CmxCell%20id%3D%220%22%2F%3E%3CmxCell%20id%3D%221%22%20parent%3D%220%22%2F%3E%3CmxCell%20id%3D%222%22%20value%3D%22name%22%20style%3D%22ellipse%3BwhiteSpace%3Dwrap%3Bhtml%3D1%3B%22%20vertex%3D%221%22%20parent%3D%221%22%3E%3CmxGeometry%20y%3D%22190%22%20width%3D%2260%22%20height%3D%2230%22%20as%3D%22geometry%22%2F%3E%3C%2FmxCell%3E%3C%2Froot%3E%3C%2FmxGraphModel%3E&lt;/span&gt;" style="ellipse;whiteSpace=wrap;html=1;" vertex="1" parent="1">
          <mxGeometry x="90" y="120" width="60" height="30" as="geometry" />
        </mxCell>
        <mxCell id="aJTX1MmzwS1lVA-8TjY2-7" value="image&lt;span style=&quot;color: rgba(0, 0, 0, 0); font-family: monospace; font-size: 0px; text-align: start; text-wrap: nowrap;&quot;&gt;%3CmxGraphModel%3E%3Croot%3E%3CmxCell%20id%3D%220%22%2F%3E%3CmxCell%20id%3D%221%22%20parent%3D%220%22%2F%3E%3CmxCell%20id%3D%222%22%20value%3D%22name%22%20style%3D%22ellipse%3BwhiteSpace%3Dwrap%3Bhtml%3D1%3B%22%20vertex%3D%221%22%20parent%3D%221%22%3E%3CmxGeometry%20y%3D%22190%22%20width%3D%2260%22%20height%3D%2230%22%20as%3D%22geometry%22%2F%3E%3C%2FmxCell%3E%3C%2Froot%3E%3C%2FmxGraphModel%3E&lt;/span&gt;" style="ellipse;whiteSpace=wrap;html=1;" vertex="1" parent="1">
          <mxGeometry x="160" y="120" width="60" height="30" as="geometry" />
        </mxCell>
        <mxCell id="aJTX1MmzwS1lVA-8TjY2-8" value="about" style="ellipse;whiteSpace=wrap;html=1;" vertex="1" parent="1">
          <mxGeometry x="240" y="130" width="60" height="30" as="geometry" />
        </mxCell>
        <mxCell id="aJTX1MmzwS1lVA-8TjY2-9" value="role" style="ellipse;whiteSpace=wrap;html=1;" vertex="1" parent="1">
          <mxGeometry x="260" y="180" width="60" height="30" as="geometry" />
        </mxCell>
        <mxCell id="aJTX1MmzwS1lVA-8TjY2-10" value="enabled" style="ellipse;whiteSpace=wrap;html=1;" vertex="1" parent="1">
          <mxGeometry x="-10" y="290" width="60" height="30" as="geometry" />
        </mxCell>
        <mxCell id="aJTX1MmzwS1lVA-8TjY2-12" value="" style="endArrow=none;html=1;rounded=0;exitX=1;exitY=0.5;exitDx=0;exitDy=0;entryX=0;entryY=1;entryDx=0;entryDy=0;" edge="1" parent="1" source="aJTX1MmzwS1lVA-8TjY2-1" target="aJTX1MmzwS1lVA-8TjY2-9">
          <mxGeometry width="50" height="50" relative="1" as="geometry">
            <mxPoint x="390" y="250" as="sourcePoint" />
            <mxPoint x="440" y="200" as="targetPoint" />
          </mxGeometry>
        </mxCell>
        <mxCell id="aJTX1MmzwS1lVA-8TjY2-13" value="" style="endArrow=none;html=1;rounded=0;entryX=0;entryY=1;entryDx=0;entryDy=0;" edge="1" parent="1" source="aJTX1MmzwS1lVA-8TjY2-1" target="aJTX1MmzwS1lVA-8TjY2-8">
          <mxGeometry width="50" height="50" relative="1" as="geometry">
            <mxPoint x="240" y="260" as="sourcePoint" />
            <mxPoint x="279" y="216" as="targetPoint" />
          </mxGeometry>
        </mxCell>
        <mxCell id="aJTX1MmzwS1lVA-8TjY2-14" value="" style="endArrow=none;html=1;rounded=0;entryX=0.617;entryY=1.133;entryDx=0;entryDy=0;entryPerimeter=0;" edge="1" parent="1" source="aJTX1MmzwS1lVA-8TjY2-1" target="aJTX1MmzwS1lVA-8TjY2-7">
          <mxGeometry width="50" height="50" relative="1" as="geometry">
            <mxPoint x="250" y="270" as="sourcePoint" />
            <mxPoint x="289" y="226" as="targetPoint" />
          </mxGeometry>
        </mxCell>
        <mxCell id="aJTX1MmzwS1lVA-8TjY2-15" value="" style="endArrow=none;html=1;rounded=0;entryX=0.733;entryY=0.9;entryDx=0;entryDy=0;entryPerimeter=0;" edge="1" parent="1" source="aJTX1MmzwS1lVA-8TjY2-1" target="aJTX1MmzwS1lVA-8TjY2-6">
          <mxGeometry width="50" height="50" relative="1" as="geometry">
            <mxPoint x="260" y="280" as="sourcePoint" />
            <mxPoint x="299" y="236" as="targetPoint" />
          </mxGeometry>
        </mxCell>
        <mxCell id="aJTX1MmzwS1lVA-8TjY2-16" value="" style="endArrow=none;html=1;rounded=0;entryX=0.5;entryY=1;entryDx=0;entryDy=0;" edge="1" parent="1" source="aJTX1MmzwS1lVA-8TjY2-1" target="aJTX1MmzwS1lVA-8TjY2-5">
          <mxGeometry width="50" height="50" relative="1" as="geometry">
            <mxPoint x="270" y="290" as="sourcePoint" />
            <mxPoint x="309" y="246" as="targetPoint" />
          </mxGeometry>
        </mxCell>
        <mxCell id="aJTX1MmzwS1lVA-8TjY2-17" value="" style="endArrow=none;html=1;rounded=0;entryX=1;entryY=0.5;entryDx=0;entryDy=0;" edge="1" parent="1" source="aJTX1MmzwS1lVA-8TjY2-1" target="aJTX1MmzwS1lVA-8TjY2-4">
          <mxGeometry width="50" height="50" relative="1" as="geometry">
            <mxPoint x="280" y="300" as="sourcePoint" />
            <mxPoint x="319" y="256" as="targetPoint" />
          </mxGeometry>
        </mxCell>
        <mxCell id="aJTX1MmzwS1lVA-8TjY2-18" value="" style="endArrow=none;html=1;rounded=0;" edge="1" parent="1" source="aJTX1MmzwS1lVA-8TjY2-1" target="aJTX1MmzwS1lVA-8TjY2-3">
          <mxGeometry width="50" height="50" relative="1" as="geometry">
            <mxPoint x="290" y="310" as="sourcePoint" />
            <mxPoint x="329" y="266" as="targetPoint" />
          </mxGeometry>
        </mxCell>
        <mxCell id="aJTX1MmzwS1lVA-8TjY2-19" value="" style="endArrow=none;html=1;rounded=0;exitX=1;exitY=0.5;exitDx=0;exitDy=0;" edge="1" parent="1" source="aJTX1MmzwS1lVA-8TjY2-10" target="aJTX1MmzwS1lVA-8TjY2-1">
          <mxGeometry width="50" height="50" relative="1" as="geometry">
            <mxPoint x="300" y="320" as="sourcePoint" />
            <mxPoint x="339" y="276" as="targetPoint" />
          </mxGeometry>
        </mxCell>
        <mxCell id="aJTX1MmzwS1lVA-8TjY2-21" value="&lt;u&gt;cid&lt;/u&gt;" style="ellipse;whiteSpace=wrap;html=1;" vertex="1" parent="1">
          <mxGeometry x="420" y="180" width="60" height="30" as="geometry" />
        </mxCell>
        <mxCell id="aJTX1MmzwS1lVA-8TjY2-22" value="discription&lt;span style=&quot;color: rgba(0, 0, 0, 0); font-family: monospace; font-size: 0px; text-align: start; text-wrap: nowrap;&quot;&gt;%3CmxGraphModel%3E%3Croot%3E%3CmxCell%20id%3D%220%22%2F%3E%3CmxCell%20id%3D%221%22%20parent%3D%220%22%2F%3E%3CmxCell%20id%3D%222%22%20value%3D%22role%22%20style%3D%22ellipse%3BwhiteSpace%3Dwrap%3Bhtml%3D1%3B%22%20vertex%3D%221%22%20parent%3D%221%22%3E%3CmxGeometry%20x%3D%22260%22%20y%3D%22180%22%20width%3D%2260%22%20height%3D%2230%22%20as%3D%22geometry%22%2F%3E%3C%2FmxCell%3E%3C%2Froot%3E%3C%2FmxGraphModel%3E&lt;/span&gt;&lt;span style=&quot;color: rgba(0, 0, 0, 0); font-family: monospace; font-size: 0px; text-align: start; text-wrap: nowrap;&quot;&gt;%3CmxGraphModel%3E%3Croot%3E%3CmxCell%20id%3D%220%22%2F%3E%3CmxCell%20id%3D%221%22%20parent%3D%220%22%2F%3E%3CmxCell%20id%3D%222%22%20value%3D%22role%22%20style%3D%22ellipse%3BwhiteSpace%3Dwrap%3Bhtml%3D1%3B%22%20vertex%3D%221%22%20parent%3D%221%22%3E%3CmxGeometry%20x%3D%22260%22%20y%3D%22180%22%20width%3D%2260%22%20height%3D%2230%22%20as%3D%22geometry%22%2F%3E%3C%2FmxCell%3E%3C%2Froot%3E%3C%2FmxGraphModel%3E&lt;/span&gt;&lt;span style=&quot;color: rgba(0, 0, 0, 0); font-family: monospace; font-size: 0px; text-align: start; text-wrap: nowrap;&quot;&gt;%3CmxGraphModel%3E%3Croot%3E%3CmxCell%20id%3D%220%22%2F%3E%3CmxCell%20id%3D%221%22%20parent%3D%220%22%2F%3E%3CmxCell%20id%3D%222%22%20value%3D%22role%22%20style%3D%22ellipse%3BwhiteSpace%3Dwrap%3Bhtml%3D1%3B%22%20vertex%3D%221%22%20parent%3D%221%22%3E%3CmxGeometry%20x%3D%22260%22%20y%3D%22180%22%20width%3D%2260%22%20height%3D%2230%22%20as%3D%22geometry%22%2F%3E%3C%2FmxCell%3E%3C%2Froot%3E%3C%2FmxGraphModel%3E&lt;/span&gt;" style="ellipse;whiteSpace=wrap;html=1;" vertex="1" parent="1">
          <mxGeometry x="700" y="160" width="60" height="30" as="geometry" />
        </mxCell>
        <mxCell id="aJTX1MmzwS1lVA-8TjY2-23" value="work" style="ellipse;whiteSpace=wrap;html=1;" vertex="1" parent="1">
          <mxGeometry x="620" y="150" width="60" height="30" as="geometry" />
        </mxCell>
        <mxCell id="aJTX1MmzwS1lVA-8TjY2-24" value="nickname" style="ellipse;whiteSpace=wrap;html=1;" vertex="1" parent="1">
          <mxGeometry x="540" y="140" width="60" height="30" as="geometry" />
        </mxCell>
        <mxCell id="aJTX1MmzwS1lVA-8TjY2-25" value="name" style="ellipse;whiteSpace=wrap;html=1;" vertex="1" parent="1">
          <mxGeometry x="460" y="140" width="60" height="30" as="geometry" />
        </mxCell>
        <mxCell id="aJTX1MmzwS1lVA-8TjY2-26" value="image" style="ellipse;whiteSpace=wrap;html=1;" vertex="1" parent="1">
          <mxGeometry x="640" y="310" width="60" height="30" as="geometry" />
        </mxCell>
        <mxCell id="aJTX1MmzwS1lVA-8TjY2-27" value="phone no" style="ellipse;whiteSpace=wrap;html=1;" vertex="1" parent="1">
          <mxGeometry x="710" y="280" width="60" height="30" as="geometry" />
        </mxCell>
        <mxCell id="aJTX1MmzwS1lVA-8TjY2-28" value="email" style="ellipse;whiteSpace=wrap;html=1;" vertex="1" parent="1">
          <mxGeometry x="720" y="220" width="60" height="30" as="geometry" />
        </mxCell>
        <mxCell id="aJTX1MmzwS1lVA-8TjY2-29" value="" style="endArrow=none;html=1;rounded=0;entryX=0.65;entryY=1;entryDx=0;entryDy=0;entryPerimeter=0;" edge="1" parent="1" source="aJTX1MmzwS1lVA-8TjY2-2" target="aJTX1MmzwS1lVA-8TjY2-21">
          <mxGeometry width="50" height="50" relative="1" as="geometry">
            <mxPoint x="390" y="250" as="sourcePoint" />
            <mxPoint x="440" y="200" as="targetPoint" />
          </mxGeometry>
        </mxCell>
        <mxCell id="aJTX1MmzwS1lVA-8TjY2-30" value="" style="endArrow=none;html=1;rounded=0;exitX=0;exitY=0;exitDx=0;exitDy=0;" edge="1" parent="1" source="aJTX1MmzwS1lVA-8TjY2-2" target="aJTX1MmzwS1lVA-8TjY2-25">
          <mxGeometry width="50" height="50" relative="1" as="geometry">
            <mxPoint x="530" y="243" as="sourcePoint" />
            <mxPoint x="469" y="226" as="targetPoint" />
          </mxGeometry>
        </mxCell>
        <mxCell id="aJTX1MmzwS1lVA-8TjY2-31" value="" style="endArrow=none;html=1;rounded=0;exitX=0.25;exitY=0;exitDx=0;exitDy=0;" edge="1" parent="1" source="aJTX1MmzwS1lVA-8TjY2-2" target="aJTX1MmzwS1lVA-8TjY2-24">
          <mxGeometry width="50" height="50" relative="1" as="geometry">
            <mxPoint x="540" y="253" as="sourcePoint" />
            <mxPoint x="479" y="236" as="targetPoint" />
          </mxGeometry>
        </mxCell>
        <mxCell id="aJTX1MmzwS1lVA-8TjY2-32" value="" style="endArrow=none;html=1;rounded=0;entryX=0;entryY=1;entryDx=0;entryDy=0;exitX=0.5;exitY=0;exitDx=0;exitDy=0;" edge="1" parent="1" source="aJTX1MmzwS1lVA-8TjY2-2" target="aJTX1MmzwS1lVA-8TjY2-23">
          <mxGeometry width="50" height="50" relative="1" as="geometry">
            <mxPoint x="550" y="263" as="sourcePoint" />
            <mxPoint x="489" y="246" as="targetPoint" />
          </mxGeometry>
        </mxCell>
        <mxCell id="aJTX1MmzwS1lVA-8TjY2-33" value="" style="endArrow=none;html=1;rounded=0;" edge="1" parent="1" source="aJTX1MmzwS1lVA-8TjY2-2" target="aJTX1MmzwS1lVA-8TjY2-22">
          <mxGeometry width="50" height="50" relative="1" as="geometry">
            <mxPoint x="560" y="273" as="sourcePoint" />
            <mxPoint x="499" y="256" as="targetPoint" />
          </mxGeometry>
        </mxCell>
        <mxCell id="aJTX1MmzwS1lVA-8TjY2-34" value="" style="endArrow=none;html=1;rounded=0;entryX=1;entryY=0.75;entryDx=0;entryDy=0;" edge="1" parent="1" source="aJTX1MmzwS1lVA-8TjY2-28" target="aJTX1MmzwS1lVA-8TjY2-2">
          <mxGeometry width="50" height="50" relative="1" as="geometry">
            <mxPoint x="570" y="283" as="sourcePoint" />
            <mxPoint x="650" y="280" as="targetPoint" />
          </mxGeometry>
        </mxCell>
        <mxCell id="aJTX1MmzwS1lVA-8TjY2-35" value="" style="endArrow=none;html=1;rounded=0;entryX=0.351;entryY=1.002;entryDx=0;entryDy=0;entryPerimeter=0;" edge="1" parent="1" source="aJTX1MmzwS1lVA-8TjY2-26" target="aJTX1MmzwS1lVA-8TjY2-2">
          <mxGeometry width="50" height="50" relative="1" as="geometry">
            <mxPoint x="580" y="293" as="sourcePoint" />
            <mxPoint x="600" y="270" as="targetPoint" />
          </mxGeometry>
        </mxCell>
        <mxCell id="aJTX1MmzwS1lVA-8TjY2-36" value="" style="endArrow=none;html=1;rounded=0;entryX=1;entryY=1;entryDx=0;entryDy=0;exitX=0;exitY=0.5;exitDx=0;exitDy=0;" edge="1" parent="1" source="aJTX1MmzwS1lVA-8TjY2-27" target="aJTX1MmzwS1lVA-8TjY2-2">
          <mxGeometry width="50" height="50" relative="1" as="geometry">
            <mxPoint x="590" y="303" as="sourcePoint" />
            <mxPoint x="529" y="286" as="targetPoint" />
          </mxGeometry>
        </mxCell>
        <mxCell id="aJTX1MmzwS1lVA-8TjY2-37" value="&lt;font style=&quot;font-size: 16px;&quot;&gt;has&lt;/font&gt;" style="rhombus;whiteSpace=wrap;html=1;" vertex="1" parent="1">
          <mxGeometry x="350" y="285" width="80" height="80" as="geometry" />
        </mxCell>
        <mxCell id="aJTX1MmzwS1lVA-8TjY2-38" value="" style="endArrow=none;html=1;rounded=0;exitX=0;exitY=0.5;exitDx=0;exitDy=0;entryX=1;entryY=1;entryDx=0;entryDy=0;" edge="1" parent="1" source="aJTX1MmzwS1lVA-8TjY2-37" target="aJTX1MmzwS1lVA-8TjY2-1">
          <mxGeometry width="50" height="50" relative="1" as="geometry">
            <mxPoint x="390" y="250" as="sourcePoint" />
            <mxPoint x="440" y="200" as="targetPoint" />
          </mxGeometry>
        </mxCell>
        <mxCell id="aJTX1MmzwS1lVA-8TjY2-39" value="" style="endArrow=none;html=1;rounded=0;entryX=1;entryY=0.5;entryDx=0;entryDy=0;exitX=0;exitY=1;exitDx=0;exitDy=0;" edge="1" parent="1" source="aJTX1MmzwS1lVA-8TjY2-2" target="aJTX1MmzwS1lVA-8TjY2-37">
          <mxGeometry width="50" height="50" relative="1" as="geometry">
            <mxPoint x="600" y="313" as="sourcePoint" />
            <mxPoint x="539" y="296" as="targetPoint" />
          </mxGeometry>
        </mxCell>
        <mxCell id="aJTX1MmzwS1lVA-8TjY2-40" value="1" style="text;html=1;align=center;verticalAlign=middle;whiteSpace=wrap;rounded=0;" vertex="1" parent="1">
          <mxGeometry x="250" y="290" width="60" height="30" as="geometry" />
        </mxCell>
        <mxCell id="aJTX1MmzwS1lVA-8TjY2-41" value="n" style="text;html=1;align=center;verticalAlign=middle;whiteSpace=wrap;rounded=0;" vertex="1" parent="1">
          <mxGeometry x="440" y="300" width="60" height="30" as="geometry" />
        </mxCell>
        <mxCell id="aJTX1MmzwS1lVA-8TjY2-42" value="ER diagram for" style="text;html=1;align=center;verticalAlign=middle;whiteSpace=wrap;rounded=0;" vertex="1" parent="1">
          <mxGeometry x="270" y="70" width="400" height="30" as="geometry" />
        </mxCell>
      </root>
    </mxGraphModel>
  </diagram>
</mxfile>
